<!DOCTYPE svg PUBLIC "-//W3C//DTD SVG 20010904//EN" "http://www.w3.org/TR/2001/REC-SVG-20010904/DTD/svg10.dtd">
<svg version="1.0" xmlns="http://www.w3.org/2000/svg" width="368px" height="267px" viewBox="0 0 3680 2670" preserveAspectRatio="xMidYMid meet">
<g id="layer101" fill="#499ccf" stroke="none">
 <path d="M1175 2436 c-155 -44 -261 -112 -345 -224 -74 -99 -119 -227 -189 -543 -18 -79 -28 -104 -57 -138 -46 -53 -96 -79 -180 -90 -99 -14 -104 -22 -104 -152 0 -106 1 -109 26 -126 14 -9 53 -20 85 -25 76 -10 128 -37 173 -89 29 -34 39 -59 57 -138 64 -285 108 -424 159 -501 84 -128 218 -222 366 -260 92 -24 135 -25 173 -5 34 17 45 40 31 65 -14 27 -36 37 -110 50 -89 16 -166 58 -231 126 -89 94 -128 193 -194 494 -14 63 -30 129 -37 145 -36 92 -129 172 -246 211 -64 22 -67 24 -67 55 0 29 4 32 55 48 78 25 116 47 173 99 63 60 90 114 116 237 72 334 114 438 220 537 74 71 134 100 230 113 37 5 62 15 78 31 28 28 28 35 4 65 -14 18 -30 23 -77 26 -32 1 -81 -4 -109 -11z"/>
 <path d="M2226 2429 c-55 -43 -18 -88 89 -108 173 -31 291 -148 355 -349 17 -52 46 -163 65 -248 37 -166 56 -213 111 -274 38 -42 152 -105 210 -116 33 -6 35 -9 32 -41 -3 -32 -6 -35 -69 -57 -109 -38 -185 -100 -229 -187 -11 -20 -38 -115 -60 -211 -22 -95 -52 -208 -66 -250 -60 -182 -182 -298 -345 -328 -79 -15 -108 -29 -115 -57 -5 -18 0 -31 15 -46 46 -46 231 -15 358 59 27 15 80 59 118 98 111 112 149 206 239 590 29 125 55 167 128 204 25 13 74 27 109 32 93 13 109 35 109 145 0 46 -4 95 -9 108 -11 27 -45 43 -114 51 -48 6 -117 35 -151 65 -33 29 -56 89 -87 228 -73 323 -115 421 -228 533 -87 87 -165 132 -277 160 -101 26 -154 26 -188 -1z"/>
 <path d="M1510 1285 l0 -226 148 3 147 3 3 28 3 27 -120 0 -121 0 0 65 0 64 103 3 102 3 3 28 3 27 -105 0 -106 0 0 70 0 70 120 0 120 0 0 30 0 30 -150 0 -150 0 0 -225z"/>
 <path d="M1980 1315 l0 -195 -75 0 -75 0 0 -30 0 -30 183 2 182 3 3 28 3 27 -80 0 -81 0 0 195 0 195 -30 0 -30 0 0 -195z"/>
 </g>

</svg>